<?xml version="1.0" encoding="UTF-8"?>
<svg width="25px" height="25px" viewBox="0 0 25 25" version="1.1" xmlns="http://www.w3.org/2000/svg" xmlns:xlink="http://www.w3.org/1999/xlink">
    <!-- Generator: Sketch 40.3 (33839) - http://www.bohemiancoding.com/sketch -->
    <title>Fill 2</title>
    <desc>Created with Sketch.</desc>
    <defs></defs>
    <g id="Symbols" stroke="none" stroke-width="1" fill="none" fill-rule="evenodd">
        <g id="Header-" transform="translate(-984.000000, -20.000000)" fill="#B5B4B4">
            <g id="Header-Bar">
                <g id="CART" transform="translate(953.000000, 20.000000)">
                    <path d="M38.5005,20 C37.1206379,20 36.0132487,21.11875 36.0132487,22.5 C36.0132487,23.88 37.1206379,25 38.5005,25 C39.8816118,25 41.00025,23.88 41.00025,22.5 C41.00025,21.11875 39.8816118,20 38.5005,20 M50.9992501,20 C49.6193881,20 48.5119988,21.11875 48.5119988,22.5 C48.5119988,23.88 49.6193881,25 50.9992501,25 C52.380362,25 53.4990001,23.88 53.4990001,22.5 C53.4990001,21.11875 52.380362,20 50.9992501,20 M33.5009999,0 L31,0 L31,2.49875 L33.5009999,2.49875 L37.9980502,11.98375 L36.3069693,15.0475 C36.1119888,15.40625 36.0007499,15.81625 36.0007499,16.25 C36.0007499,17.63 37.1206379,18.75 38.5005,18.75 L53.4990001,18.75 L53.4990001,16.25 L39.0291971,16.25 C38.8567143,16.25 38.7179782,16.11125 38.7179782,15.9375 L38.7554745,15.78625 L39.8778622,13.75 L49.1881812,13.75 C50.1280872,13.75 50.9480052,13.23125 51.3754625,12.46375 L55.8425157,4.3525 C55.9425057,4.175 56,3.96875 56,3.75 C56,3.05875 55.440056,2.49875 54.7488751,2.49875 L36.2669733,2.49875 L35.759524,1.43125 C35.3608139,0.585 34.4984002,0 33.5009999,0" id="Fill-2"></path>
                </g>
            </g>
        </g>
    </g>
</svg>